<svg width="1157" height="1157" viewBox="0 0 1157 1157" fill="none" xmlns="http://www.w3.org/2000/svg">
<path d="M558.769 28.4932C568.313 14.711 588.687 14.711 598.231 28.4931L638.773 87.0388C646.562 98.2868 662.163 100.758 673.047 92.4673L729.696 49.3152C743.032 39.1568 762.409 45.4527 767.227 61.5096L787.693 129.718C791.625 142.822 805.699 149.994 818.612 145.472L885.823 121.938C901.645 116.397 918.128 128.373 917.749 145.133L916.135 216.327C915.825 230.005 926.995 241.175 940.673 240.865L1011.87 239.251C1028.63 238.872 1040.6 255.355 1035.06 271.177L1011.53 338.388C1007.01 351.301 1014.18 365.375 1027.28 369.307L1095.49 389.773C1111.55 394.591 1117.84 413.968 1107.68 427.304L1064.53 483.953C1056.24 494.837 1058.71 510.438 1069.96 518.227L1128.51 558.769C1142.29 568.313 1142.29 588.687 1128.51 598.231L1069.96 638.773C1058.71 646.562 1056.24 662.163 1064.53 673.047L1107.68 729.696C1117.84 743.032 1111.55 762.409 1095.49 767.227L1027.28 787.693C1014.18 791.625 1007.01 805.699 1011.53 818.612L1035.06 885.823C1040.6 901.645 1028.63 918.128 1011.87 917.749L940.673 916.135C926.995 915.825 915.825 926.995 916.135 940.673L917.749 1011.87C918.128 1028.63 901.645 1040.6 885.823 1035.06L818.612 1011.53C805.699 1007.01 791.625 1014.18 787.693 1027.28L767.227 1095.49C762.409 1111.55 743.032 1117.84 729.696 1107.68L673.047 1064.53C662.163 1056.24 646.562 1058.71 638.773 1069.96L598.231 1128.51C588.687 1142.29 568.313 1142.29 558.769 1128.51L518.227 1069.96C510.438 1058.71 494.837 1056.24 483.953 1064.53L427.304 1107.68C413.968 1117.84 394.591 1111.55 389.773 1095.49L369.307 1027.28C365.375 1014.18 351.301 1007.01 338.388 1011.53L271.177 1035.06C255.355 1040.6 238.872 1028.63 239.251 1011.87L240.865 940.673C241.175 926.995 230.005 915.825 216.327 916.135L145.133 917.749C128.373 918.128 116.397 901.645 121.938 885.823L145.472 818.612C149.994 805.699 142.822 791.625 129.718 787.693L61.5096 767.227C45.4528 762.409 39.1568 743.032 49.3152 729.696L92.4673 673.047C100.758 662.163 98.2868 646.562 87.0389 638.773L28.4932 598.231C14.711 588.687 14.711 568.313 28.4931 558.769L87.0388 518.227C98.2868 510.438 100.758 494.837 92.4673 483.953L49.3152 427.304C39.1568 413.968 45.4527 394.591 61.5096 389.773L129.718 369.307C142.822 365.375 149.994 351.301 145.472 338.388L121.938 271.177C116.397 255.355 128.373 238.872 145.133 239.251L216.327 240.865C230.005 241.175 241.175 230.005 240.865 216.327L239.251 145.133C238.872 128.373 255.355 116.397 271.177 121.938L338.388 145.472C351.301 149.994 365.375 142.822 369.307 129.718L389.773 61.5096C394.591 45.4528 413.968 39.1568 427.304 49.3152L483.953 92.4673C494.837 100.758 510.438 98.2868 518.227 87.0389L558.769 28.4932Z" fill="url(#paint0_linear_5_7)"/>
<path d="M210.3 588.9V556.2L309.3 423H360.3L263.4 556.2L239.7 549.3H405V588.9H210.3ZM323.4 633V588.9L324.9 549.3V510H370.8V633H323.4ZM492.457 419.4C511.857 419.4 528.557 423.4 542.557 431.4C556.557 439.4 567.357 451.1 574.957 466.5C582.557 481.7 586.357 500.7 586.357 523.5C586.357 547.7 581.757 568.2 572.557 585C563.557 601.8 551.057 614.6 535.057 623.4C519.057 632.2 500.457 636.6 479.257 636.6C468.257 636.6 457.657 635.4 447.457 633C437.257 630.6 428.457 627 421.057 622.2L439.057 586.5C444.857 590.5 451.057 593.3 457.657 594.9C464.257 596.3 471.157 597 478.357 597C496.357 597 510.657 591.5 521.257 580.5C532.057 569.5 537.457 553.2 537.457 531.6C537.457 528 537.357 524 537.157 519.6C536.957 515.2 536.457 510.8 535.657 506.4L548.857 519C545.457 526.8 540.657 533.4 534.457 538.8C528.257 544 521.057 548 512.857 550.8C504.657 553.4 495.457 554.7 485.257 554.7C471.857 554.7 459.657 552 448.657 546.6C437.857 541.2 429.157 533.6 422.557 523.8C416.157 514 412.957 502.5 412.957 489.3C412.957 474.9 416.457 462.5 423.457 452.1C430.657 441.7 440.257 433.7 452.257 428.1C464.457 422.3 477.857 419.4 492.457 419.4ZM495.457 455.7C488.457 455.7 482.357 457 477.157 459.6C471.957 462 467.857 465.6 464.857 470.4C461.857 475 460.357 480.5 460.357 486.9C460.357 496.5 463.557 504.2 469.957 510C476.557 515.6 485.257 518.4 496.057 518.4C503.057 518.4 509.257 517.1 514.657 514.5C520.257 511.7 524.557 507.9 527.557 503.1C530.557 498.3 532.057 492.9 532.057 486.9C532.057 480.9 530.557 475.6 527.557 471C524.757 466.2 520.657 462.5 515.257 459.9C509.857 457.1 503.257 455.7 495.457 455.7ZM639.973 633L783.373 423H819.073L675.673 633H639.973ZM658.273 536.4C648.073 536.4 639.073 534.1 631.273 529.5C623.473 524.7 617.273 518 612.673 509.4C608.273 500.6 606.073 490.3 606.073 478.5C606.073 466.7 608.273 456.5 612.673 447.9C617.273 439.3 623.473 432.6 631.273 427.8C639.073 423 648.073 420.6 658.273 420.6C668.473 420.6 677.473 423 685.273 427.8C693.073 432.6 699.173 439.3 703.573 447.9C707.973 456.5 710.173 466.7 710.173 478.5C710.173 490.3 707.973 500.6 703.573 509.4C699.173 518 693.073 524.7 685.273 529.5C677.473 534.1 668.473 536.4 658.273 536.4ZM658.273 511.8C664.873 511.8 670.173 509.1 674.173 503.7C678.173 498.1 680.173 489.7 680.173 478.5C680.173 467.3 678.173 459 674.173 453.6C670.173 448 664.873 445.2 658.273 445.2C651.873 445.2 646.573 448 642.373 453.6C638.373 459 636.373 467.3 636.373 478.5C636.373 489.5 638.373 497.8 642.373 503.4C646.573 509 651.873 511.8 658.273 511.8ZM800.773 635.4C790.773 635.4 781.773 633.1 773.773 628.5C765.973 623.7 759.873 617 755.473 608.4C751.073 599.6 748.873 589.3 748.873 577.5C748.873 565.7 751.073 555.5 755.473 546.9C759.873 538.3 765.973 531.6 773.773 526.8C781.773 522 790.773 519.6 800.773 519.6C811.173 519.6 820.273 522 828.073 526.8C835.873 531.6 841.973 538.3 846.373 546.9C850.773 555.5 852.973 565.7 852.973 577.5C852.973 589.3 850.773 599.6 846.373 608.4C841.973 617 835.873 623.7 828.073 628.5C820.273 633.1 811.173 635.4 800.773 635.4ZM800.773 610.8C807.373 610.8 812.673 608.1 816.673 602.7C820.673 597.1 822.673 588.7 822.673 577.5C822.673 566.5 820.673 558.2 816.673 552.6C812.673 547 807.373 544.2 800.773 544.2C794.373 544.2 789.073 547 784.873 552.6C780.873 558 778.873 566.3 778.873 577.5C778.873 588.7 780.873 597.1 784.873 602.7C789.073 608.1 794.373 610.8 800.773 610.8Z" fill="white"/>
<path d="M723.45 793.8C715.15 793.8 707.45 792.45 700.35 789.75C693.35 787.05 687.25 783.25 682.05 778.35C676.95 773.45 672.95 767.7 670.05 761.1C667.25 754.5 665.85 747.3 665.85 739.5C665.85 731.7 667.25 724.5 670.05 717.9C672.95 711.3 677 705.55 682.2 700.65C687.4 695.75 693.5 691.95 700.5 689.25C707.5 686.55 715.1 685.2 723.3 685.2C731.6 685.2 739.2 686.55 746.1 689.25C753.1 691.95 759.15 695.75 764.25 700.65C769.45 705.55 773.5 711.3 776.4 717.9C779.3 724.4 780.75 731.6 780.75 739.5C780.75 747.3 779.3 754.55 776.4 761.25C773.5 767.85 769.45 773.6 764.25 778.5C759.15 783.3 753.1 787.05 746.1 789.75C739.2 792.45 731.65 793.8 723.45 793.8ZM723.3 773.1C728 773.1 732.3 772.3 736.2 770.7C740.2 769.1 743.7 766.8 746.7 763.8C749.7 760.8 752 757.25 753.6 753.15C755.3 749.05 756.15 744.5 756.15 739.5C756.15 734.5 755.3 729.95 753.6 725.85C752 721.75 749.7 718.2 746.7 715.2C743.8 712.2 740.35 709.9 736.35 708.3C732.35 706.7 728 705.9 723.3 705.9C718.6 705.9 714.25 706.7 710.25 708.3C706.35 709.9 702.9 712.2 699.9 715.2C696.9 718.2 694.55 721.75 692.85 725.85C691.25 729.95 690.45 734.5 690.45 739.5C690.45 744.4 691.25 748.95 692.85 753.15C694.55 757.25 696.85 760.8 699.75 763.8C702.75 766.8 706.25 769.1 710.25 770.7C714.25 772.3 718.6 773.1 723.3 773.1ZM821.513 734.25H871.913V753.75H821.513V734.25ZM823.313 792H799.013V687H878.363V706.5H823.313V792ZM917.313 734.25H967.713V753.75H917.313V734.25ZM919.113 792H894.813V687H974.163V706.5H919.113V792Z" fill="white"/>
<defs>
<linearGradient id="paint0_linear_5_7" x1="0" y1="578.5" x2="1157" y2="578.5" gradientUnits="userSpaceOnUse">
<stop stop-color="#F0537A"/>
<stop offset="1" stop-color="#FBB023"/>
</linearGradient>
</defs>
</svg>
